Coordinates
version=1
nRows=38
nColumns=12
inDegrees=yes

Units are S.I. units (second, meters, Newtons, ...)
Angles are in degrees

endheader
time	SC_y	SC_z	SC_x	AC_y	AC_z	AC_x	GH_y	GH_z	GH_yy	EL_x	PS_y
       0.0              -32.56         -2.573          31.65          34.17         -9.281         -13.03          121.4          44.15         -112.9          125.2          121.6
   0.03292              -32.56         -2.568          31.65          34.17         -9.282         -13.03          121.4          44.15         -112.9          125.2          121.6
   0.06584              -32.57         -2.562          31.65          34.18         -9.282         -13.03          121.4          44.16         -112.9          125.2          121.5
   0.09876              -32.57         -2.557          31.65          34.18         -9.283         -13.03          121.4          44.16         -112.9          125.2          121.5
    0.1317              -32.57         -2.551          31.65          34.19         -9.284         -13.03          121.4          44.17         -112.9          125.2          121.5
    0.1646              -32.57         -2.545          31.64          34.19         -9.285         -13.03          121.5          44.17         -112.9          125.2          121.5
    0.1975              -32.57         -2.538          31.64           34.2         -9.286         -13.03          121.5          44.18         -112.8          125.2          121.5
    0.2304              -32.57         -2.531          31.64           34.2         -9.287         -13.03          121.5          44.18         -112.8          125.2          121.4
    0.2633              -32.58         -2.523          31.64          34.21         -9.288         -13.03          121.5          44.19         -112.8          125.2          121.4
    0.2963              -32.58         -2.514          31.63          34.21         -9.289         -13.03          121.5          44.19         -112.8          125.2          121.4
    0.3292              -32.58         -2.506          31.63          34.22          -9.29         -13.03          121.5           44.2         -112.8          125.2          121.3
    0.3621              -32.58         -2.496          31.63          34.23         -9.291         -13.03          121.5          44.21         -112.8          125.2          121.3
     0.395              -32.58         -2.486          31.63          34.23         -9.293         -13.03          121.5          44.22         -112.7          125.2          121.3
    0.4279              -32.59         -2.474          31.62          34.24         -9.294         -13.03          121.5          44.22         -112.7          125.2          121.2
    0.4609              -32.59         -2.462          31.62          34.25         -9.296         -13.03          121.5          44.23         -112.7          125.2          121.2
    0.4938              -32.59         -2.449          31.61          34.26         -9.298         -13.03          121.5          44.24         -112.6          125.2          121.2
    0.5267               -32.6         -2.435          31.61          34.27         -9.299         -13.03          121.5          44.25         -112.6          125.2          121.1
    0.5596               -32.6         -2.419           31.6          34.28         -9.302         -13.03          121.5          44.27         -112.6          125.2          121.1
    0.5925              -32.61         -2.402           31.6          34.29         -9.304         -13.03          121.6          44.28         -112.5          125.2          121.0
    0.6255              -32.61         -2.384          31.59          34.31         -9.306         -13.03          121.6          44.29         -112.5          125.2          120.9
    0.6584              -32.62         -2.363          31.59          34.32         -9.309         -13.03          121.6          44.31         -112.5          125.2          120.9
    0.6913              -32.62         -2.341          31.58          34.34         -9.312         -13.03          121.6          44.33         -112.4          125.2          120.8
    0.7242              -32.63         -2.316          31.57          34.35         -9.315         -13.03          121.6          44.34         -112.3          125.1          120.7
    0.7571              -32.63         -2.288          31.56          34.37         -9.319         -13.03          121.6          44.37         -112.3          125.1          120.6
      0.79              -32.64         -2.258          31.55           34.4         -9.323         -13.03          121.7          44.39         -112.2          125.1          120.5
     0.823              -32.65         -2.224          31.54          34.42         -9.328         -13.03          121.7          44.42         -112.1          125.1          120.4
    0.8559              -32.66         -2.185          31.53          34.45         -9.333         -13.03          121.7          44.44         -112.1          125.1          120.3
    0.8888              -32.67         -2.142          31.51          34.48         -9.338         -13.03          121.7          44.48         -112.0          125.1          120.1
    0.9217              -32.68         -2.094           31.5          34.51         -9.345         -13.03          121.8          44.51         -111.9          125.1          119.9
    0.9546               -32.7         -2.039          31.48          34.55         -9.352         -13.04          121.8          44.56         -111.7          125.1          119.7
    0.9876              -32.71         -1.976          31.46           34.6         -9.361         -13.04          121.8           44.6         -111.6          125.1          119.5
      1.02              -32.73         -1.903          31.43          34.65          -9.37         -13.04          121.9          44.66         -111.4          125.0          119.3
     1.053              -32.75          -1.82          31.41          34.71         -9.382         -13.04          122.0          44.72         -111.2          125.0          119.0
     1.086              -32.77         -1.723          31.37          34.78         -9.394         -13.04          122.0           44.8         -111.0          125.0          118.7
     1.119               -32.8         -1.609          31.34          34.86          -9.41         -13.04          122.1          44.88         -110.8          125.0          118.3
     1.152              -32.83         -1.476          31.29          34.95         -9.427         -13.04          122.2          44.98         -110.5          124.9          117.8
     1.185              -32.87         -1.317          31.24          35.07         -9.449         -13.05          122.3          45.11         -110.1          124.9          117.3
     1.218              -32.92         -1.126          31.18           35.2         -9.474         -13.05          122.4          45.25         -109.7          124.9          116.6
